A

 #     #                            
 #  #  # #####    ##   ##### #    # 
 #  #  # #    #  #  #    #   #    # 
 #  #  # #    # #    #   #   ###### 
 #  #  # #####  ######   #   #    # 
 #  #  # #   #  #    #   #   #    # 
  ## ##  #    # #    #   #   #    # 
                                    
                                     Encoding................




File Name

The Crazies 2010 BRRip H264 LKRG-Wrath.mp4

File Size
Format : MPEG-4
Format profile : Base Media
Codec ID : isom
File size : 1.90 GiB
Duration : 1h 40mn
Overall bit rate : 2 700 Kbps

Video
ID : 1
Format : AVC
Format/Info : Advanced Video Codec
Format profile : High@L4.1
Format settings, CABAC : Yes
Format settings, ReFrames : 3 frames
Codec ID : avc1
Codec ID/Info : Advanced Video Coding
Duration : 1h 40mn
Bit rate mode : Variable
Bit rate : 2 122 Kbps
Maximum bit rate : 12.3 Mbps
Width : 1 264 pixels
Height : 528 pixels
Display aspect ratio : 2.35:1
Frame rate mode : Constant
Frame rate : 23.976 fps
Resolution : 24 bits
Colorimetry : 4:2:0
Scan type : Progressive
Bits/(Pixel*Frame) : 0.133
Stream size : 1.49 GiB (78%)

Audio #1
ID : 2
Format : AAC
Format/Info : Advanced Audio Codec
Format version : Version 4
Format profile : LC
Format settings, SBR : No
Codec ID : 40
Duration : 1h 40mn
Bit rate mode : Variable
Bit rate : 128 Kbps
Maximum bit rate : 135 Kbps
Channel(s) : 2 channels
Channel positions : L R
Sampling rate : 48.0 KHz
Resolution : 16 bits
Stream size : 92.2 MiB (5%)



 #       #    # ######   #####  
 #       #   #  #     # #     # 
 #       #  #   #     # #       
 #       ###    ######  #  #### 
 #       #  #   #   #   #     # 
 #       #   #  #    #  #     # 
 ####### #    # #     #  #####  
                                


Audio #2
ID : 3
Format : AAC
Format/Info : Advanced Audio Codec
Format version : Version 4
Format profile : LC
Format settings, SBR : No
Codec ID : 40
Duration : 1h 40mn
Bit rate mode : Variable
Bit rate : 448 Kbps
Maximum bit rate : 465 Kbps
Channel(s) : 6 channels
Channel positions : Front: L C R, Rear: L R, LFE
Sampling rate : 48.0 KHz
Resolution : 16 bits
Stream size : 323 MiB (17%)

Text
ID : 4
Format : Timed text
Codec ID : tx3g
Duration : 1h 35mn
Bit rate mode : Variable
Bit rate : 53 bps
Stream size : 36.9 KiB (0%)

English SRT : External

Language : English

 
http://www.imdb.com/title/tt0455407/

Release Date: 26 February 2010 (USA)

Genre: Mystery | Sci-Fi | Thriller 

Plot: About the inhabitants of a small Iowa town suddenly plagued by insanity and then death after a mysterious toxin contaminates their water supply.

Cast: 
Timothy Olyphant ... David Dutton
Radha Mitchell ... Judy Dutton
Joe Anderson ... Russell Clank
Danielle Panabaker ... Becca Darling
Christie Lynn Smith ... Deardra Farnum
Brett Rickaby ... Bill Farnum
Preston Bailey ... Nicholas
John Aylward ... Mayor Hobbs
Joe Reegan ... Pvt. Billy Babcock
Glenn Morshower ... Intelligence Officer
Larry Cedar ... Ben Sandborn
Gregory Sporleder ... Travis Quinn
Mike Hickman ... Rory Hamill
Lisa K. Wyatt ... Peggy Hamill
Justin Welborn ... Curt Hammil

Screenshots

 
http://postimg.com/image/17000/16552.jpg 
http://postimg.com/image/17000/16553.jpg




A

 #     #                            
 #  #  # #####    ##   ##### #    # 
 #  #  # #    #  #  #    #   #    # 
 #  #  # #    # #    #   #   ###### 
 #  #  # #####  ######   #   #    # 
 #  #  # #   #  #    #   #   #    # 
  ## ##  #    # #    #   #   #    # 
                                    
                                     Encoding................
